{"title":"The Interceptor (2015) S01E03 x264 RB58.mp4","uid":12059010,"size":668168564,"categoryP":"video","categoryS":"tv_shows","magnet":"?xt=urn:btih:63543b5b6eeccfce60bde5418e6d69a11a90c8ac&amp;dn=The+Interceptor+%282015%29+S01E03+x264+RB58.mp4&amp;tr=udp%3A%2F%2Ftracker.openbittorrent.com%3A80&amp;tr=udp%3A%2F%2Fopen.demonii.com%3A1337&amp;tr=udp%3A%2F%2Ftracker.coppersurfer.tk%3A6969&amp;tr=udp%3A%2F%2Fexodus.desync.com%3A6969","seeders":0,"leechers":1,"uploader":"RedBaron58","files":1,"time":1435192830,"description":"The Interceptor (2015) S01E03 x264 mp4\n &lt;a href=&quot;\nhttp://www.imdb.com/title/tt3654614/&quot; rel=&quot;nofollow&quot; target=&quot;_NEW&quot;&gt;\nhttp://www.imdb.com/title/tt3654614/&lt;/a&gt;\n\nTrailer:\n\n\nPlease be patient My intial upload speed is limited.\nThank you for your kind comments and feedback on my other torrents, your feedback is welcome.\n\n\nAbout the Episode:\nPhone taps provide the UNIT team with intelligence on a man known only as The Accountant, \nthe mastermind behind a scheme to launder money via Hawala, a traditional Middle Eastern money transfer \nsystem based on trust and honour. \nFurther investigation reveals that Zubin Ray, a broker from a family of honest `Hawaladars' became \nentangled in The Accountant's plot, and ended up losing the fraudster's money.\n\nStarring O-T Fagbenle\n\n\nI hope you enjoy.\n\n\nTechnical:\n\nGeneral\nComplete name                            : H:The Interceptor (2015) S01E03 x264 RB58.mp4\nFormat                                   : MPEG-4\nFormat profile                           : Base Media\nCodec ID                                 : isom\nFile size                                : 637 MiB\nDuration                                 : 58mn 36s\nOverall bit rate                         : 1 520 Kbps\nWriting application                      : Lavf54.63.104\n\nVideo\nID                                       : 1\nFormat                                   : AVC\nFormat/Info                              : Advanced Video Codec\nFormat profile                           : &lt;a class=&quot;__cf_email__&quot; href=&quot;/cdn-cgi/l/email-protection&quot; data-cfemail=&quot;7f371618173f334c514f&quot;&gt;[email&amp;#160;protected]&lt;/a&gt;&lt;script data-cfhash='f9e31' type=&quot;text/javascript&quot;&gt;\n/* &lt;![CDATA[ */!function(){try{var t=&quot;currentScript&quot;in document?document.currentScript:function(){for(var t=document.getElementsByTagName(&quot;script&quot;),e=t.length;e--;)if(t[e].getAttribute(&quot;data-cfhash&quot;))return t[e]}();if(t&amp;&amp;t.previousSibling){var e,r,n,i,c=t.previousSibling,a=c.getAttribute(&quot;data-cfemail&quot;);if(a){for(e=&quot;&quot;,r=parseInt(a.substr(0,2),16),n=2;a.length-n;n+=2)i=parseInt(a.substr(n,2),16)^r,e+=String.fromCharCode(i);e=document.createTextNode(e),c.parentNode.replaceChild(e,c)}t.parentNode.removeChild(t);}}catch(u){}}()/* ]]&gt; */&lt;/script&gt;\nFormat settings, CABAC                   : Yes\nFormat settings, ReFrames                : 4 frames\nCodec ID                                 : avc1\nCodec ID/Info                            : Advanced Video Coding\nDuration                                 : 58mn 36s\nBit rate                                 : 1 400 Kbps\nWidth                                    : 832 pixels\nHeight                                   : 468 pixels\nDisplay aspect ratio                     : 16:9\nFrame rate mode                          : Constant\nFrame rate                               : 25.000 fps\nColor space                              : YUV\nChroma subsampling                       : 4:2:0\nBit depth                                : 8 bits\nScan type                                : Progressive\nBits/(Pixel*Frame)                       : 0.144\nStream size                              : 587 MiB (92%)\nWriting library                          : x264 core 123 r2189 35cf912\nEncoding settings                        : cabac=1 / ref=3 / deblock=1:0:0\n\nAudio\nID                                       : 2\nFormat                                   : AAC\nFormat/Info                              : Advanced Audio Codec\nFormat profile                           : LC\nCodec ID                                 : 40\nDuration                                 : 58mn 36s\nBit rate mode                            : Constant\nBit rate                                 : 112 Kbps\nChannel(s)                               : 2 channels\nChannel positions                        : Front: L R\nSampling rate                            : 48.0 KHz\nCompression mode                         : Lossy\nStream size                              : 46.9 MiB (7%)","torrent":{"xt":"urn:btih:63543b5b6eeccfce60bde5418e6d69a11a90c8ac","amp;dn":"The+Interceptor+%282015%29+S01E03+x264+RB58.mp4","amp;tr":["udp%3A%2F%2Ftracker.openbittorrent.com%3A80","udp%3A%2F%2Fopen.demonii.com%3A1337","udp%3A%2F%2Ftracker.coppersurfer.tk%3A6969","udp%3A%2F%2Fexodus.desync.com%3A6969"],"infoHash":"63543b5b6eeccfce60bde5418e6d69a11a90c8ac","infoHashBuffer":{"type":"Buffer","data":[99,84,59,91,110,236,207,206,96,189,229,65,142,109,105,161,26,144,200,172]},"announce":[],"urlList":[]}}